# xmcd
#
# Track frame offsets: 
#        182
#        14365
#        28135
#        41797
#        55070
#        68370
#        81650
#        94972
#        105350
#        119272
#        135020
#        149605
#        163362
#        178027
#
# Disc length: 2574 seconds
#
# Revision: 3
# Processed by: cddbd v1.5.2PL0 Copyright (c) Steve Scherf et al.
# Submitted via: ExactAudioCopyFreeDBPlugin 1.0
#
DISCID=bf0a0c0e
DTITLE=Various Artist - Harmonica Blues
DYEAR=1991
DGENRE=Blues
TTITLE0=Freeman Stowers - Railroad Blues
TTITLE1=State Street Boys - Crazy about You
TTITLE2=Carver Boys - Wang Wang Harmonica Blues
TTITLE3=Lee Brown - My Driving Wheel
TTITLE4=Ashley and Foster - Bay Rum Blues
TTITLE5=Robert Hill - I'm Going to Write and Tell Mother
TTITLE6=Chuck Darling - Blowin' the Blues
TTITLE7=Chuck Darling - Harmonica Rag
TTITLE8=Jaybird Coleman - Man Trouble Blues
TTITLE9=Jazz Gillum - I Want You by my Side
TTITLE10=Alfred Lewis - Friday Moan Blues
TTITLE11=Chicken Wilson and Skeeter Hinton - House Snake Blues
TTITLE12=Bobby Leecan and Robert Cooksey - Need More Blues
TTITLE13=DeFord Bailey - Davidson County Blues
EXTD=
EXTT0=
EXTT1=
EXTT2=
EXTT3=
EXTT4=
EXTT5=
EXTT6=
EXTT7=
EXTT8=
EXTT9=
EXTT10=
EXTT11=
EXTT12=
EXTT13=
PLAYORDER=
